<mxfile host="app.diagrams.net" agent="Mozilla/5.0 (Macintosh; Intel Mac OS X 10_15_7) AppleWebKit/537.36 (KHTML, like Gecko) Chrome/131.0.0.0 Safari/537.36" version="25.0.3">
  <diagram name="Page-1" id="UrUFfLQcuhpmT6h1-5Pt">
    <mxGraphModel dx="2074" dy="1066" grid="1" gridSize="10" guides="1" tooltips="1" connect="1" arrows="1" fold="1" page="1" pageScale="1" pageWidth="3300" pageHeight="2339" math="0" shadow="0">
      <root>
        <mxCell id="0" />
        <mxCell id="1" parent="0" />
        <mxCell id="Zl5kmqtOo2W7yN948FD8-77" value="Telefonszám" style="ellipse;whiteSpace=wrap;html=1;" vertex="1" parent="1">
          <mxGeometry x="1236.5" y="286.5" width="109.01" height="59" as="geometry" />
        </mxCell>
        <mxCell id="Zl5kmqtOo2W7yN948FD8-10" value="" style="ellipse;whiteSpace=wrap;html=1;" vertex="1" parent="1">
          <mxGeometry x="1910" y="145" width="138.75" height="70" as="geometry" />
        </mxCell>
        <mxCell id="Zl5kmqtOo2W7yN948FD8-8" value="" style="ellipse;whiteSpace=wrap;html=1;" vertex="1" parent="1">
          <mxGeometry x="630" y="145" width="138.75" height="70" as="geometry" />
        </mxCell>
        <mxCell id="Zl5kmqtOo2W7yN948FD8-7" value="" style="ellipse;whiteSpace=wrap;html=1;" vertex="1" parent="1">
          <mxGeometry x="178.13" y="145" width="138.75" height="70" as="geometry" />
        </mxCell>
        <mxCell id="Zl5kmqtOo2W7yN948FD8-1" value="Autókölcsönzés" style="ellipse;whiteSpace=wrap;html=1;" vertex="1" parent="1">
          <mxGeometry x="1232.5" width="125" height="60" as="geometry" />
        </mxCell>
        <mxCell id="Zl5kmqtOo2W7yN948FD8-2" value="Egyedi nyilvántartás" style="ellipse;whiteSpace=wrap;html=1;" vertex="1" parent="1">
          <mxGeometry x="185" y="150" width="125" height="60" as="geometry" />
        </mxCell>
        <mxCell id="Zl5kmqtOo2W7yN948FD8-3" value="Gépjármű" style="ellipse;whiteSpace=wrap;html=1;" vertex="1" parent="1">
          <mxGeometry x="636.88" y="150" width="125" height="60" as="geometry" />
        </mxCell>
        <mxCell id="Zl5kmqtOo2W7yN948FD8-5" value="Szerelő" style="ellipse;whiteSpace=wrap;html=1;" vertex="1" parent="1">
          <mxGeometry x="1916.88" y="150" width="125" height="60" as="geometry" />
        </mxCell>
        <mxCell id="Zl5kmqtOo2W7yN948FD8-15" value="KGFB" style="ellipse;whiteSpace=wrap;html=1;" vertex="1" parent="1">
          <mxGeometry x="110" y="290" width="100" height="50" as="geometry" />
        </mxCell>
        <mxCell id="Zl5kmqtOo2W7yN948FD8-16" value="Tulajdonos" style="ellipse;whiteSpace=wrap;html=1;" vertex="1" parent="1">
          <mxGeometry x="270" y="290" width="100" height="50" as="geometry" />
        </mxCell>
        <mxCell id="Zl5kmqtOo2W7yN948FD8-17" value="" style="rounded=0;whiteSpace=wrap;html=1;" vertex="1" parent="1">
          <mxGeometry x="145" y="360" width="30" height="50" as="geometry" />
        </mxCell>
        <mxCell id="Zl5kmqtOo2W7yN948FD8-18" value="" style="rounded=0;whiteSpace=wrap;html=1;" vertex="1" parent="1">
          <mxGeometry x="305" y="360" width="30" height="50" as="geometry" />
        </mxCell>
        <mxCell id="Zl5kmqtOo2W7yN948FD8-19" value="" style="endArrow=none;html=1;rounded=0;exitX=0.5;exitY=0;exitDx=0;exitDy=0;entryX=0.5;entryY=1;entryDx=0;entryDy=0;" edge="1" parent="1" source="Zl5kmqtOo2W7yN948FD8-17" target="Zl5kmqtOo2W7yN948FD8-15">
          <mxGeometry width="50" height="50" relative="1" as="geometry">
            <mxPoint x="150" y="399" as="sourcePoint" />
            <mxPoint x="150" y="370" as="targetPoint" />
          </mxGeometry>
        </mxCell>
        <mxCell id="Zl5kmqtOo2W7yN948FD8-20" value="" style="endArrow=none;html=1;rounded=0;exitX=0.5;exitY=0;exitDx=0;exitDy=0;entryX=0.5;entryY=1;entryDx=0;entryDy=0;" edge="1" parent="1" source="Zl5kmqtOo2W7yN948FD8-18" target="Zl5kmqtOo2W7yN948FD8-16">
          <mxGeometry width="50" height="50" relative="1" as="geometry">
            <mxPoint x="258" y="410" as="sourcePoint" />
            <mxPoint x="258" y="370" as="targetPoint" />
          </mxGeometry>
        </mxCell>
        <mxCell id="Zl5kmqtOo2W7yN948FD8-22" value="" style="endArrow=none;html=1;rounded=0;exitX=0.5;exitY=0;exitDx=0;exitDy=0;entryX=0.5;entryY=1;entryDx=0;entryDy=0;" edge="1" parent="1" source="Zl5kmqtOo2W7yN948FD8-15" target="Zl5kmqtOo2W7yN948FD8-2">
          <mxGeometry width="50" height="50" relative="1" as="geometry">
            <mxPoint x="150" y="320" as="sourcePoint" />
            <mxPoint x="250" y="220" as="targetPoint" />
          </mxGeometry>
        </mxCell>
        <mxCell id="Zl5kmqtOo2W7yN948FD8-23" value="" style="endArrow=none;html=1;rounded=0;exitX=0.5;exitY=0;exitDx=0;exitDy=0;entryX=0.5;entryY=1;entryDx=0;entryDy=0;" edge="1" parent="1" source="Zl5kmqtOo2W7yN948FD8-16" target="Zl5kmqtOo2W7yN948FD8-2">
          <mxGeometry width="50" height="50" relative="1" as="geometry">
            <mxPoint x="258" y="320" as="sourcePoint" />
            <mxPoint x="260" y="230" as="targetPoint" />
          </mxGeometry>
        </mxCell>
        <mxCell id="Zl5kmqtOo2W7yN948FD8-24" value="Rendszám" style="rhombus;whiteSpace=wrap;html=1;fontStyle=4" vertex="1" parent="1">
          <mxGeometry x="40" y="150" width="70" height="60" as="geometry" />
        </mxCell>
        <mxCell id="Zl5kmqtOo2W7yN948FD8-25" value="" style="endArrow=none;html=1;rounded=0;exitX=1;exitY=0.5;exitDx=0;exitDy=0;entryX=0;entryY=0.5;entryDx=0;entryDy=0;" edge="1" parent="1" source="Zl5kmqtOo2W7yN948FD8-24" target="Zl5kmqtOo2W7yN948FD8-2">
          <mxGeometry width="50" height="50" relative="1" as="geometry">
            <mxPoint x="258" y="320" as="sourcePoint" />
            <mxPoint x="258" y="220" as="targetPoint" />
          </mxGeometry>
        </mxCell>
        <mxCell id="Zl5kmqtOo2W7yN948FD8-26" value="Évjárat" style="ellipse;whiteSpace=wrap;html=1;" vertex="1" parent="1">
          <mxGeometry x="419.38" y="290" width="100" height="50" as="geometry" />
        </mxCell>
        <mxCell id="Zl5kmqtOo2W7yN948FD8-27" value="Márka" style="ellipse;whiteSpace=wrap;html=1;" vertex="1" parent="1">
          <mxGeometry x="529.38" y="290" width="100" height="50" as="geometry" />
        </mxCell>
        <mxCell id="Zl5kmqtOo2W7yN948FD8-28" value="" style="rounded=0;whiteSpace=wrap;html=1;" vertex="1" parent="1">
          <mxGeometry x="454.38" y="360" width="30" height="50" as="geometry" />
        </mxCell>
        <mxCell id="Zl5kmqtOo2W7yN948FD8-29" value="" style="rounded=0;whiteSpace=wrap;html=1;" vertex="1" parent="1">
          <mxGeometry x="564.38" y="360" width="30" height="50" as="geometry" />
        </mxCell>
        <mxCell id="Zl5kmqtOo2W7yN948FD8-30" value="" style="endArrow=none;html=1;rounded=0;exitX=0.5;exitY=0;exitDx=0;exitDy=0;entryX=0.5;entryY=1;entryDx=0;entryDy=0;" edge="1" parent="1" source="Zl5kmqtOo2W7yN948FD8-28" target="Zl5kmqtOo2W7yN948FD8-26">
          <mxGeometry width="50" height="50" relative="1" as="geometry">
            <mxPoint x="459.38" y="399" as="sourcePoint" />
            <mxPoint x="459.38" y="370" as="targetPoint" />
          </mxGeometry>
        </mxCell>
        <mxCell id="Zl5kmqtOo2W7yN948FD8-31" value="" style="endArrow=none;html=1;rounded=0;exitX=0.5;exitY=0;exitDx=0;exitDy=0;entryX=0.5;entryY=1;entryDx=0;entryDy=0;" edge="1" parent="1" source="Zl5kmqtOo2W7yN948FD8-29" target="Zl5kmqtOo2W7yN948FD8-27">
          <mxGeometry width="50" height="50" relative="1" as="geometry">
            <mxPoint x="517.38" y="410" as="sourcePoint" />
            <mxPoint x="517.38" y="370" as="targetPoint" />
          </mxGeometry>
        </mxCell>
        <mxCell id="Zl5kmqtOo2W7yN948FD8-32" value="Gyártási hely" style="ellipse;whiteSpace=wrap;html=1;" vertex="1" parent="1">
          <mxGeometry x="649.38" y="290" width="100" height="50" as="geometry" />
        </mxCell>
        <mxCell id="Zl5kmqtOo2W7yN948FD8-33" value="" style="rounded=0;whiteSpace=wrap;html=1;" vertex="1" parent="1">
          <mxGeometry x="684.38" y="360" width="30" height="50" as="geometry" />
        </mxCell>
        <mxCell id="Zl5kmqtOo2W7yN948FD8-34" value="" style="endArrow=none;html=1;rounded=0;exitX=0.5;exitY=0;exitDx=0;exitDy=0;entryX=0.5;entryY=1;entryDx=0;entryDy=0;" edge="1" parent="1" source="Zl5kmqtOo2W7yN948FD8-33" target="Zl5kmqtOo2W7yN948FD8-32">
          <mxGeometry width="50" height="50" relative="1" as="geometry">
            <mxPoint x="637.38" y="410" as="sourcePoint" />
            <mxPoint x="637.38" y="370" as="targetPoint" />
          </mxGeometry>
        </mxCell>
        <mxCell id="Zl5kmqtOo2W7yN948FD8-38" value="Jármű tipus" style="ellipse;whiteSpace=wrap;html=1;" vertex="1" parent="1">
          <mxGeometry x="762.86" y="290" width="100" height="50" as="geometry" />
        </mxCell>
        <mxCell id="Zl5kmqtOo2W7yN948FD8-39" value="" style="rounded=0;whiteSpace=wrap;html=1;" vertex="1" parent="1">
          <mxGeometry x="797.86" y="360" width="30" height="50" as="geometry" />
        </mxCell>
        <mxCell id="Zl5kmqtOo2W7yN948FD8-40" value="" style="endArrow=none;html=1;rounded=0;exitX=0.5;exitY=0;exitDx=0;exitDy=0;entryX=0.5;entryY=1;entryDx=0;entryDy=0;" edge="1" parent="1" source="Zl5kmqtOo2W7yN948FD8-39" target="Zl5kmqtOo2W7yN948FD8-38">
          <mxGeometry width="50" height="50" relative="1" as="geometry">
            <mxPoint x="802.86" y="399" as="sourcePoint" />
            <mxPoint x="802.86" y="370" as="targetPoint" />
          </mxGeometry>
        </mxCell>
        <mxCell id="Zl5kmqtOo2W7yN948FD8-41" value="Megtett kilométer" style="ellipse;whiteSpace=wrap;html=1;" vertex="1" parent="1">
          <mxGeometry x="870" y="430" width="100" height="50" as="geometry" />
        </mxCell>
        <mxCell id="Zl5kmqtOo2W7yN948FD8-42" value="" style="rounded=0;whiteSpace=wrap;html=1;" vertex="1" parent="1">
          <mxGeometry x="905" y="520" width="30" height="50" as="geometry" />
        </mxCell>
        <mxCell id="Zl5kmqtOo2W7yN948FD8-43" value="" style="endArrow=none;html=1;rounded=0;exitX=0.5;exitY=0;exitDx=0;exitDy=0;entryX=0.5;entryY=1;entryDx=0;entryDy=0;" edge="1" parent="1" source="Zl5kmqtOo2W7yN948FD8-42" target="Zl5kmqtOo2W7yN948FD8-41">
          <mxGeometry width="50" height="50" relative="1" as="geometry">
            <mxPoint x="908.37" y="400" as="sourcePoint" />
            <mxPoint x="908.37" y="371" as="targetPoint" />
          </mxGeometry>
        </mxCell>
        <mxCell id="Zl5kmqtOo2W7yN948FD8-44" value="" style="endArrow=none;html=1;rounded=0;entryX=0.5;entryY=1;entryDx=0;entryDy=0;exitX=0.5;exitY=0;exitDx=0;exitDy=0;" edge="1" parent="1" source="Zl5kmqtOo2W7yN948FD8-26" target="Zl5kmqtOo2W7yN948FD8-3">
          <mxGeometry width="50" height="50" relative="1" as="geometry">
            <mxPoint x="720" y="430" as="sourcePoint" />
            <mxPoint x="770" y="380" as="targetPoint" />
          </mxGeometry>
        </mxCell>
        <mxCell id="Zl5kmqtOo2W7yN948FD8-45" value="" style="endArrow=none;html=1;rounded=0;entryX=0.5;entryY=1;entryDx=0;entryDy=0;exitX=0.5;exitY=0;exitDx=0;exitDy=0;" edge="1" parent="1" source="Zl5kmqtOo2W7yN948FD8-27" target="Zl5kmqtOo2W7yN948FD8-3">
          <mxGeometry width="50" height="50" relative="1" as="geometry">
            <mxPoint x="490" y="300" as="sourcePoint" />
            <mxPoint x="709" y="220" as="targetPoint" />
          </mxGeometry>
        </mxCell>
        <mxCell id="Zl5kmqtOo2W7yN948FD8-46" value="" style="endArrow=none;html=1;rounded=0;entryX=0.5;entryY=1;entryDx=0;entryDy=0;exitX=0.5;exitY=0;exitDx=0;exitDy=0;" edge="1" parent="1" source="Zl5kmqtOo2W7yN948FD8-32" target="Zl5kmqtOo2W7yN948FD8-3">
          <mxGeometry width="50" height="50" relative="1" as="geometry">
            <mxPoint x="710" y="280" as="sourcePoint" />
            <mxPoint x="709" y="220" as="targetPoint" />
          </mxGeometry>
        </mxCell>
        <mxCell id="Zl5kmqtOo2W7yN948FD8-47" value="" style="endArrow=none;html=1;rounded=0;entryX=0.5;entryY=1;entryDx=0;entryDy=0;exitX=0.5;exitY=0;exitDx=0;exitDy=0;" edge="1" parent="1" source="Zl5kmqtOo2W7yN948FD8-38" target="Zl5kmqtOo2W7yN948FD8-3">
          <mxGeometry width="50" height="50" relative="1" as="geometry">
            <mxPoint x="720" y="300" as="sourcePoint" />
            <mxPoint x="709" y="220" as="targetPoint" />
          </mxGeometry>
        </mxCell>
        <mxCell id="Zl5kmqtOo2W7yN948FD8-48" value="" style="endArrow=none;html=1;rounded=0;entryX=0.5;entryY=1;entryDx=0;entryDy=0;exitX=0.5;exitY=0;exitDx=0;exitDy=0;" edge="1" parent="1" source="Zl5kmqtOo2W7yN948FD8-167" target="Zl5kmqtOo2W7yN948FD8-3">
          <mxGeometry width="50" height="50" relative="1" as="geometry">
            <mxPoint x="837" y="300" as="sourcePoint" />
            <mxPoint x="709" y="220" as="targetPoint" />
          </mxGeometry>
        </mxCell>
        <mxCell id="Zl5kmqtOo2W7yN948FD8-49" value="" style="ellipse;whiteSpace=wrap;html=1;" vertex="1" parent="1">
          <mxGeometry x="1221.62" y="146" width="138.75" height="70" as="geometry" />
        </mxCell>
        <mxCell id="Zl5kmqtOo2W7yN948FD8-50" value="Vásárló" style="ellipse;whiteSpace=wrap;html=1;" vertex="1" parent="1">
          <mxGeometry x="1228.5" y="151" width="125" height="60" as="geometry" />
        </mxCell>
        <mxCell id="Zl5kmqtOo2W7yN948FD8-51" value="Vásárló név" style="ellipse;whiteSpace=wrap;html=1;" vertex="1" parent="1">
          <mxGeometry x="1011" y="291" width="100" height="50" as="geometry" />
        </mxCell>
        <mxCell id="Zl5kmqtOo2W7yN948FD8-52" value="Lakcím" style="ellipse;whiteSpace=wrap;html=1;" vertex="1" parent="1">
          <mxGeometry x="1121" y="291" width="100" height="50" as="geometry" />
        </mxCell>
        <mxCell id="Zl5kmqtOo2W7yN948FD8-53" value="" style="rounded=0;whiteSpace=wrap;html=1;" vertex="1" parent="1">
          <mxGeometry x="1046" y="361" width="30" height="50" as="geometry" />
        </mxCell>
        <mxCell id="Zl5kmqtOo2W7yN948FD8-54" value="" style="rounded=0;whiteSpace=wrap;html=1;" vertex="1" parent="1">
          <mxGeometry x="1156" y="361" width="30" height="50" as="geometry" />
        </mxCell>
        <mxCell id="Zl5kmqtOo2W7yN948FD8-55" value="" style="endArrow=none;html=1;rounded=0;exitX=0.5;exitY=0;exitDx=0;exitDy=0;entryX=0.5;entryY=1;entryDx=0;entryDy=0;" edge="1" parent="1" source="Zl5kmqtOo2W7yN948FD8-53" target="Zl5kmqtOo2W7yN948FD8-51">
          <mxGeometry width="50" height="50" relative="1" as="geometry">
            <mxPoint x="1051" y="400" as="sourcePoint" />
            <mxPoint x="1051" y="371" as="targetPoint" />
          </mxGeometry>
        </mxCell>
        <mxCell id="Zl5kmqtOo2W7yN948FD8-56" value="" style="endArrow=none;html=1;rounded=0;exitX=0.5;exitY=0;exitDx=0;exitDy=0;entryX=0.5;entryY=1;entryDx=0;entryDy=0;" edge="1" parent="1" source="Zl5kmqtOo2W7yN948FD8-54" target="Zl5kmqtOo2W7yN948FD8-52">
          <mxGeometry width="50" height="50" relative="1" as="geometry">
            <mxPoint x="1109" y="411" as="sourcePoint" />
            <mxPoint x="1109" y="371" as="targetPoint" />
          </mxGeometry>
        </mxCell>
        <mxCell id="Zl5kmqtOo2W7yN948FD8-57" value="Telefonszám" style="ellipse;whiteSpace=wrap;html=1;" vertex="1" parent="1">
          <mxGeometry x="1241" y="291" width="100" height="50" as="geometry" />
        </mxCell>
        <mxCell id="Zl5kmqtOo2W7yN948FD8-58" value="" style="rounded=0;whiteSpace=wrap;html=1;" vertex="1" parent="1">
          <mxGeometry x="1276" y="361" width="30" height="50" as="geometry" />
        </mxCell>
        <mxCell id="Zl5kmqtOo2W7yN948FD8-59" value="" style="endArrow=none;html=1;rounded=0;exitX=0.5;exitY=0;exitDx=0;exitDy=0;entryX=0.5;entryY=1;entryDx=0;entryDy=0;" edge="1" parent="1" source="Zl5kmqtOo2W7yN948FD8-58" target="Zl5kmqtOo2W7yN948FD8-57">
          <mxGeometry width="50" height="50" relative="1" as="geometry">
            <mxPoint x="1229" y="411" as="sourcePoint" />
            <mxPoint x="1229" y="371" as="targetPoint" />
          </mxGeometry>
        </mxCell>
        <mxCell id="Zl5kmqtOo2W7yN948FD8-60" value="Kölcsönzés" style="ellipse;whiteSpace=wrap;html=1;" vertex="1" parent="1">
          <mxGeometry x="1358.48" y="291" width="100" height="50" as="geometry" />
        </mxCell>
        <mxCell id="Zl5kmqtOo2W7yN948FD8-62" value="" style="endArrow=none;html=1;rounded=0;exitX=0.5;exitY=0;exitDx=0;exitDy=0;entryX=0.5;entryY=1;entryDx=0;entryDy=0;" edge="1" parent="1" source="Zl5kmqtOo2W7yN948FD8-78" target="Zl5kmqtOo2W7yN948FD8-60">
          <mxGeometry width="50" height="50" relative="1" as="geometry">
            <mxPoint x="1408.48" y="361" as="sourcePoint" />
            <mxPoint x="1398.48" y="371" as="targetPoint" />
          </mxGeometry>
        </mxCell>
        <mxCell id="Zl5kmqtOo2W7yN948FD8-66" value="" style="endArrow=none;html=1;rounded=0;entryX=0.5;entryY=1;entryDx=0;entryDy=0;exitX=0.5;exitY=0;exitDx=0;exitDy=0;" edge="1" parent="1" source="Zl5kmqtOo2W7yN948FD8-51" target="Zl5kmqtOo2W7yN948FD8-50">
          <mxGeometry width="50" height="50" relative="1" as="geometry">
            <mxPoint x="1311.62" y="431" as="sourcePoint" />
            <mxPoint x="1361.62" y="381" as="targetPoint" />
          </mxGeometry>
        </mxCell>
        <mxCell id="Zl5kmqtOo2W7yN948FD8-67" value="" style="endArrow=none;html=1;rounded=0;entryX=0.5;entryY=1;entryDx=0;entryDy=0;exitX=0.5;exitY=0;exitDx=0;exitDy=0;" edge="1" parent="1" source="Zl5kmqtOo2W7yN948FD8-52" target="Zl5kmqtOo2W7yN948FD8-50">
          <mxGeometry width="50" height="50" relative="1" as="geometry">
            <mxPoint x="1081.62" y="301" as="sourcePoint" />
            <mxPoint x="1300.62" y="221" as="targetPoint" />
          </mxGeometry>
        </mxCell>
        <mxCell id="Zl5kmqtOo2W7yN948FD8-68" value="" style="endArrow=none;html=1;rounded=0;entryX=0.5;entryY=1;entryDx=0;entryDy=0;exitX=0.5;exitY=0;exitDx=0;exitDy=0;" edge="1" parent="1" source="Zl5kmqtOo2W7yN948FD8-57" target="Zl5kmqtOo2W7yN948FD8-50">
          <mxGeometry width="50" height="50" relative="1" as="geometry">
            <mxPoint x="1301.62" y="281" as="sourcePoint" />
            <mxPoint x="1300.62" y="221" as="targetPoint" />
          </mxGeometry>
        </mxCell>
        <mxCell id="Zl5kmqtOo2W7yN948FD8-69" value="" style="endArrow=none;html=1;rounded=0;entryX=0.5;entryY=1;entryDx=0;entryDy=0;exitX=0.5;exitY=0;exitDx=0;exitDy=0;" edge="1" parent="1" source="Zl5kmqtOo2W7yN948FD8-60" target="Zl5kmqtOo2W7yN948FD8-50">
          <mxGeometry width="50" height="50" relative="1" as="geometry">
            <mxPoint x="1311.62" y="301" as="sourcePoint" />
            <mxPoint x="1300.62" y="221" as="targetPoint" />
          </mxGeometry>
        </mxCell>
        <mxCell id="Zl5kmqtOo2W7yN948FD8-71" value="Rendszám" style="rhombus;whiteSpace=wrap;html=1;fontStyle=4" vertex="1" parent="1">
          <mxGeometry x="490" y="150" width="70" height="60" as="geometry" />
        </mxCell>
        <mxCell id="Zl5kmqtOo2W7yN948FD8-72" value="" style="endArrow=none;html=1;rounded=0;exitX=1;exitY=0.5;exitDx=0;exitDy=0;entryX=0;entryY=0.5;entryDx=0;entryDy=0;" edge="1" parent="1" source="Zl5kmqtOo2W7yN948FD8-71">
          <mxGeometry width="50" height="50" relative="1" as="geometry">
            <mxPoint x="554.3800000000001" y="179" as="sourcePoint" />
            <mxPoint x="629.38" y="179" as="targetPoint" />
          </mxGeometry>
        </mxCell>
        <mxCell id="Zl5kmqtOo2W7yN948FD8-73" value="JárműID" style="rhombus;whiteSpace=wrap;html=1;fontStyle=4" vertex="1" parent="1">
          <mxGeometry x="955" y="145" width="70" height="60" as="geometry" />
        </mxCell>
        <mxCell id="Zl5kmqtOo2W7yN948FD8-74" value="" style="endArrow=none;html=1;rounded=0;exitX=1;exitY=0.5;exitDx=0;exitDy=0;entryX=0;entryY=0.5;entryDx=0;entryDy=0;" edge="1" parent="1" target="Zl5kmqtOo2W7yN948FD8-73">
          <mxGeometry width="50" height="50" relative="1" as="geometry">
            <mxPoint x="768.75" y="179.5" as="sourcePoint" />
            <mxPoint x="844.13" y="179.5" as="targetPoint" />
          </mxGeometry>
        </mxCell>
        <mxCell id="Zl5kmqtOo2W7yN948FD8-75" value="VásárlóID" style="rhombus;whiteSpace=wrap;html=1;fontStyle=4" vertex="1" parent="1">
          <mxGeometry x="1434.1" y="155" width="70" height="60" as="geometry" />
        </mxCell>
        <mxCell id="Zl5kmqtOo2W7yN948FD8-76" value="" style="endArrow=none;html=1;rounded=0;exitX=1;exitY=0.5;exitDx=0;exitDy=0;entryX=0;entryY=0.5;entryDx=0;entryDy=0;" edge="1" parent="1">
          <mxGeometry width="50" height="50" relative="1" as="geometry">
            <mxPoint x="1358.48" y="183.5" as="sourcePoint" />
            <mxPoint x="1433.8600000000001" y="183.5" as="targetPoint" />
          </mxGeometry>
        </mxCell>
        <mxCell id="Zl5kmqtOo2W7yN948FD8-78" value="Kölcsönzés ára" style="ellipse;whiteSpace=wrap;html=1;" vertex="1" parent="1">
          <mxGeometry x="1248.74" y="450" width="100" height="50" as="geometry" />
        </mxCell>
        <mxCell id="Zl5kmqtOo2W7yN948FD8-79" value="Kölcsönzés ideje" style="ellipse;whiteSpace=wrap;html=1;" vertex="1" parent="1">
          <mxGeometry x="1362.74" y="450" width="100" height="50" as="geometry" />
        </mxCell>
        <mxCell id="Zl5kmqtOo2W7yN948FD8-80" value="Eltelt napok" style="ellipse;whiteSpace=wrap;html=1;" vertex="1" parent="1">
          <mxGeometry x="1476.84" y="450" width="100" height="50" as="geometry" />
        </mxCell>
        <mxCell id="Zl5kmqtOo2W7yN948FD8-81" value="Tól" style="ellipse;whiteSpace=wrap;html=1;" vertex="1" parent="1">
          <mxGeometry x="1318.25" y="590" width="100" height="50" as="geometry" />
        </mxCell>
        <mxCell id="Zl5kmqtOo2W7yN948FD8-82" value="Ig" style="ellipse;whiteSpace=wrap;html=1;" vertex="1" parent="1">
          <mxGeometry x="1429.77" y="590" width="100" height="50" as="geometry" />
        </mxCell>
        <mxCell id="Zl5kmqtOo2W7yN948FD8-83" value="" style="endArrow=none;html=1;rounded=0;entryX=0.5;entryY=1;entryDx=0;entryDy=0;exitX=0.5;exitY=0;exitDx=0;exitDy=0;" edge="1" parent="1" source="Zl5kmqtOo2W7yN948FD8-81" target="Zl5kmqtOo2W7yN948FD8-79">
          <mxGeometry width="50" height="50" relative="1" as="geometry">
            <mxPoint x="1292.74" y="430" as="sourcePoint" />
            <mxPoint x="1342.74" y="380" as="targetPoint" />
          </mxGeometry>
        </mxCell>
        <mxCell id="Zl5kmqtOo2W7yN948FD8-84" value="" style="endArrow=none;html=1;rounded=0;entryX=0.5;entryY=1;entryDx=0;entryDy=0;exitX=0.5;exitY=0;exitDx=0;exitDy=0;" edge="1" parent="1" source="Zl5kmqtOo2W7yN948FD8-82" target="Zl5kmqtOo2W7yN948FD8-79">
          <mxGeometry width="50" height="50" relative="1" as="geometry">
            <mxPoint x="1378.74" y="550" as="sourcePoint" />
            <mxPoint x="1422.74" y="510" as="targetPoint" />
          </mxGeometry>
        </mxCell>
        <mxCell id="Zl5kmqtOo2W7yN948FD8-85" value="" style="endArrow=none;html=1;rounded=0;exitX=0.5;exitY=0;exitDx=0;exitDy=0;" edge="1" parent="1" source="Zl5kmqtOo2W7yN948FD8-79">
          <mxGeometry width="50" height="50" relative="1" as="geometry">
            <mxPoint x="1336" y="460" as="sourcePoint" />
            <mxPoint x="1410" y="340" as="targetPoint" />
          </mxGeometry>
        </mxCell>
        <mxCell id="Zl5kmqtOo2W7yN948FD8-86" value="" style="endArrow=none;html=1;rounded=0;exitX=0.5;exitY=0;exitDx=0;exitDy=0;entryX=0.5;entryY=1;entryDx=0;entryDy=0;" edge="1" parent="1" source="Zl5kmqtOo2W7yN948FD8-80" target="Zl5kmqtOo2W7yN948FD8-60">
          <mxGeometry width="50" height="50" relative="1" as="geometry">
            <mxPoint x="1450" y="460" as="sourcePoint" />
            <mxPoint x="1420" y="350" as="targetPoint" />
          </mxGeometry>
        </mxCell>
        <mxCell id="Zl5kmqtOo2W7yN948FD8-87" value="" style="rounded=0;whiteSpace=wrap;html=1;" vertex="1" parent="1">
          <mxGeometry x="1353.5" y="660" width="30" height="50" as="geometry" />
        </mxCell>
        <mxCell id="Zl5kmqtOo2W7yN948FD8-88" value="" style="endArrow=none;html=1;rounded=0;exitX=0.5;exitY=0;exitDx=0;exitDy=0;entryX=0.5;entryY=1;entryDx=0;entryDy=0;" edge="1" parent="1" source="Zl5kmqtOo2W7yN948FD8-87">
          <mxGeometry width="50" height="50" relative="1" as="geometry">
            <mxPoint x="1306.5" y="710" as="sourcePoint" />
            <mxPoint x="1368.5" y="640" as="targetPoint" />
          </mxGeometry>
        </mxCell>
        <mxCell id="Zl5kmqtOo2W7yN948FD8-89" value="" style="rounded=0;whiteSpace=wrap;html=1;" vertex="1" parent="1">
          <mxGeometry x="1464.77" y="660" width="30" height="50" as="geometry" />
        </mxCell>
        <mxCell id="Zl5kmqtOo2W7yN948FD8-90" value="" style="endArrow=none;html=1;rounded=0;exitX=0.5;exitY=0;exitDx=0;exitDy=0;entryX=0.5;entryY=1;entryDx=0;entryDy=0;" edge="1" parent="1" source="Zl5kmqtOo2W7yN948FD8-89">
          <mxGeometry width="50" height="50" relative="1" as="geometry">
            <mxPoint x="1417.77" y="710" as="sourcePoint" />
            <mxPoint x="1479.77" y="640" as="targetPoint" />
          </mxGeometry>
        </mxCell>
        <mxCell id="Zl5kmqtOo2W7yN948FD8-91" value="" style="rounded=0;whiteSpace=wrap;html=1;" vertex="1" parent="1">
          <mxGeometry x="1511.84" y="520" width="30" height="50" as="geometry" />
        </mxCell>
        <mxCell id="Zl5kmqtOo2W7yN948FD8-92" value="" style="endArrow=none;html=1;rounded=0;exitX=0.5;exitY=0;exitDx=0;exitDy=0;entryX=0.5;entryY=1;entryDx=0;entryDy=0;" edge="1" parent="1" source="Zl5kmqtOo2W7yN948FD8-91">
          <mxGeometry width="50" height="50" relative="1" as="geometry">
            <mxPoint x="1464.84" y="570" as="sourcePoint" />
            <mxPoint x="1526.84" y="500" as="targetPoint" />
          </mxGeometry>
        </mxCell>
        <mxCell id="Zl5kmqtOo2W7yN948FD8-93" value="" style="rounded=0;whiteSpace=wrap;html=1;" vertex="1" parent="1">
          <mxGeometry x="1280" y="520" width="30" height="50" as="geometry" />
        </mxCell>
        <mxCell id="Zl5kmqtOo2W7yN948FD8-94" value="" style="endArrow=none;html=1;rounded=0;exitX=0.5;exitY=0;exitDx=0;exitDy=0;entryX=0.5;entryY=1;entryDx=0;entryDy=0;" edge="1" parent="1" source="Zl5kmqtOo2W7yN948FD8-93">
          <mxGeometry width="50" height="50" relative="1" as="geometry">
            <mxPoint x="1233" y="570" as="sourcePoint" />
            <mxPoint x="1295" y="500" as="targetPoint" />
          </mxGeometry>
        </mxCell>
        <mxCell id="Zl5kmqtOo2W7yN948FD8-95" value="Lakcím" style="ellipse;whiteSpace=wrap;html=1;" vertex="1" parent="1">
          <mxGeometry x="1810" y="290" width="100" height="50" as="geometry" />
        </mxCell>
        <mxCell id="Zl5kmqtOo2W7yN948FD8-96" value="" style="endArrow=none;html=1;rounded=0;entryX=0.5;entryY=1;entryDx=0;entryDy=0;exitX=0.5;exitY=0;exitDx=0;exitDy=0;" edge="1" parent="1" source="Zl5kmqtOo2W7yN948FD8-95" target="Zl5kmqtOo2W7yN948FD8-5">
          <mxGeometry width="50" height="50" relative="1" as="geometry">
            <mxPoint x="1820.62" y="340" as="sourcePoint" />
            <mxPoint x="1800" y="250" as="targetPoint" />
          </mxGeometry>
        </mxCell>
        <mxCell id="Zl5kmqtOo2W7yN948FD8-97" value="Telefonszám" style="ellipse;whiteSpace=wrap;html=1;" vertex="1" parent="1">
          <mxGeometry x="1929.38" y="290" width="100" height="50" as="geometry" />
        </mxCell>
        <mxCell id="Zl5kmqtOo2W7yN948FD8-98" value="" style="endArrow=none;html=1;rounded=0;exitX=0.5;exitY=0;exitDx=0;exitDy=0;" edge="1" parent="1" source="Zl5kmqtOo2W7yN948FD8-97">
          <mxGeometry width="50" height="50" relative="1" as="geometry">
            <mxPoint x="1940.62" y="343.5" as="sourcePoint" />
            <mxPoint x="1980" y="210" as="targetPoint" />
          </mxGeometry>
        </mxCell>
        <mxCell id="Zl5kmqtOo2W7yN948FD8-99" value="Szerelő neve" style="ellipse;whiteSpace=wrap;html=1;" vertex="1" parent="1">
          <mxGeometry x="2048.75" y="286.5" width="100" height="50" as="geometry" />
        </mxCell>
        <mxCell id="Zl5kmqtOo2W7yN948FD8-100" value="" style="endArrow=none;html=1;rounded=0;exitX=0.5;exitY=0;exitDx=0;exitDy=0;entryX=0.5;entryY=1;entryDx=0;entryDy=0;" edge="1" parent="1" source="Zl5kmqtOo2W7yN948FD8-99" target="Zl5kmqtOo2W7yN948FD8-5">
          <mxGeometry width="50" height="50" relative="1" as="geometry">
            <mxPoint x="1950" y="297" as="sourcePoint" />
            <mxPoint x="1990" y="220" as="targetPoint" />
          </mxGeometry>
        </mxCell>
        <mxCell id="Zl5kmqtOo2W7yN948FD8-101" value="Karbantartó" style="rhombus;whiteSpace=wrap;html=1;fontStyle=4" vertex="1" parent="1">
          <mxGeometry x="1720" y="150" width="70" height="60" as="geometry" />
        </mxCell>
        <mxCell id="Zl5kmqtOo2W7yN948FD8-102" value="" style="endArrow=none;html=1;rounded=0;entryX=0;entryY=0.5;entryDx=0;entryDy=0;exitX=1;exitY=0.5;exitDx=0;exitDy=0;" edge="1" parent="1" source="Zl5kmqtOo2W7yN948FD8-101" target="Zl5kmqtOo2W7yN948FD8-5">
          <mxGeometry width="50" height="50" relative="1" as="geometry">
            <mxPoint x="1830" y="180" as="sourcePoint" />
            <mxPoint x="1443.8600000000001" y="193.5" as="targetPoint" />
          </mxGeometry>
        </mxCell>
        <mxCell id="Zl5kmqtOo2W7yN948FD8-104" value="SzerelőID" style="rhombus;whiteSpace=wrap;html=1;fontStyle=4" vertex="1" parent="1">
          <mxGeometry x="2222" y="150" width="70" height="60" as="geometry" />
        </mxCell>
        <mxCell id="Zl5kmqtOo2W7yN948FD8-105" value="" style="endArrow=none;html=1;rounded=0;entryX=1;entryY=0.5;entryDx=0;entryDy=0;exitX=0;exitY=0.5;exitDx=0;exitDy=0;" edge="1" parent="1" source="Zl5kmqtOo2W7yN948FD8-104" target="Zl5kmqtOo2W7yN948FD8-10">
          <mxGeometry width="50" height="50" relative="1" as="geometry">
            <mxPoint x="1800" y="190" as="sourcePoint" />
            <mxPoint x="1927" y="190" as="targetPoint" />
          </mxGeometry>
        </mxCell>
        <mxCell id="Zl5kmqtOo2W7yN948FD8-106" value="" style="rounded=0;whiteSpace=wrap;html=1;" vertex="1" parent="1">
          <mxGeometry x="1845" y="360" width="30" height="50" as="geometry" />
        </mxCell>
        <mxCell id="Zl5kmqtOo2W7yN948FD8-107" value="" style="endArrow=none;html=1;rounded=0;exitX=0.5;exitY=0;exitDx=0;exitDy=0;entryX=0.5;entryY=1;entryDx=0;entryDy=0;" edge="1" parent="1" source="Zl5kmqtOo2W7yN948FD8-106">
          <mxGeometry width="50" height="50" relative="1" as="geometry">
            <mxPoint x="1798" y="410" as="sourcePoint" />
            <mxPoint x="1860" y="340" as="targetPoint" />
          </mxGeometry>
        </mxCell>
        <mxCell id="Zl5kmqtOo2W7yN948FD8-108" value="" style="rounded=0;whiteSpace=wrap;html=1;" vertex="1" parent="1">
          <mxGeometry x="1964.38" y="360" width="30" height="50" as="geometry" />
        </mxCell>
        <mxCell id="Zl5kmqtOo2W7yN948FD8-109" value="" style="endArrow=none;html=1;rounded=0;exitX=0.5;exitY=0;exitDx=0;exitDy=0;entryX=0.5;entryY=1;entryDx=0;entryDy=0;" edge="1" parent="1" source="Zl5kmqtOo2W7yN948FD8-108">
          <mxGeometry width="50" height="50" relative="1" as="geometry">
            <mxPoint x="1917.38" y="410" as="sourcePoint" />
            <mxPoint x="1979.38" y="340" as="targetPoint" />
          </mxGeometry>
        </mxCell>
        <mxCell id="Zl5kmqtOo2W7yN948FD8-110" value="" style="rounded=0;whiteSpace=wrap;html=1;" vertex="1" parent="1">
          <mxGeometry x="2083.75" y="356.5" width="30" height="50" as="geometry" />
        </mxCell>
        <mxCell id="Zl5kmqtOo2W7yN948FD8-111" value="" style="endArrow=none;html=1;rounded=0;exitX=0.5;exitY=0;exitDx=0;exitDy=0;entryX=0.5;entryY=1;entryDx=0;entryDy=0;" edge="1" parent="1" source="Zl5kmqtOo2W7yN948FD8-110">
          <mxGeometry width="50" height="50" relative="1" as="geometry">
            <mxPoint x="2036.75" y="406.5" as="sourcePoint" />
            <mxPoint x="2098.75" y="336.5" as="targetPoint" />
          </mxGeometry>
        </mxCell>
        <mxCell id="Zl5kmqtOo2W7yN948FD8-112" value="" style="ellipse;whiteSpace=wrap;html=1;" vertex="1" parent="1">
          <mxGeometry x="2540" y="151" width="138.75" height="70" as="geometry" />
        </mxCell>
        <mxCell id="Zl5kmqtOo2W7yN948FD8-113" value="Kölcsönző cég" style="ellipse;whiteSpace=wrap;html=1;" vertex="1" parent="1">
          <mxGeometry x="2546.88" y="156" width="125" height="60" as="geometry" />
        </mxCell>
        <mxCell id="Zl5kmqtOo2W7yN948FD8-114" value="Cím" style="ellipse;whiteSpace=wrap;html=1;" vertex="1" parent="1">
          <mxGeometry x="2440" y="296" width="100" height="50" as="geometry" />
        </mxCell>
        <mxCell id="Zl5kmqtOo2W7yN948FD8-115" value="" style="endArrow=none;html=1;rounded=0;entryX=0.5;entryY=1;entryDx=0;entryDy=0;exitX=0.5;exitY=0;exitDx=0;exitDy=0;" edge="1" parent="1" source="Zl5kmqtOo2W7yN948FD8-114" target="Zl5kmqtOo2W7yN948FD8-113">
          <mxGeometry width="50" height="50" relative="1" as="geometry">
            <mxPoint x="2450.62" y="346" as="sourcePoint" />
            <mxPoint x="2430" y="256" as="targetPoint" />
          </mxGeometry>
        </mxCell>
        <mxCell id="Zl5kmqtOo2W7yN948FD8-116" value="Alapterület" style="ellipse;whiteSpace=wrap;html=1;" vertex="1" parent="1">
          <mxGeometry x="2559.38" y="296" width="100" height="50" as="geometry" />
        </mxCell>
        <mxCell id="Zl5kmqtOo2W7yN948FD8-117" value="" style="endArrow=none;html=1;rounded=0;exitX=0.5;exitY=0;exitDx=0;exitDy=0;" edge="1" parent="1" source="Zl5kmqtOo2W7yN948FD8-116">
          <mxGeometry width="50" height="50" relative="1" as="geometry">
            <mxPoint x="2570.62" y="349.5" as="sourcePoint" />
            <mxPoint x="2610" y="216" as="targetPoint" />
          </mxGeometry>
        </mxCell>
        <mxCell id="Zl5kmqtOo2W7yN948FD8-118" value="Autók száma" style="ellipse;whiteSpace=wrap;html=1;" vertex="1" parent="1">
          <mxGeometry x="2678.75" y="295.5" width="100" height="50" as="geometry" />
        </mxCell>
        <mxCell id="Zl5kmqtOo2W7yN948FD8-119" value="" style="endArrow=none;html=1;rounded=0;exitX=0.5;exitY=0;exitDx=0;exitDy=0;entryX=0.5;entryY=1;entryDx=0;entryDy=0;" edge="1" parent="1" source="Zl5kmqtOo2W7yN948FD8-118" target="Zl5kmqtOo2W7yN948FD8-113">
          <mxGeometry width="50" height="50" relative="1" as="geometry">
            <mxPoint x="2580" y="303" as="sourcePoint" />
            <mxPoint x="2620" y="226" as="targetPoint" />
          </mxGeometry>
        </mxCell>
        <mxCell id="Zl5kmqtOo2W7yN948FD8-121" value="" style="endArrow=none;html=1;rounded=0;entryX=0;entryY=0.5;entryDx=0;entryDy=0;exitX=1;exitY=0.5;exitDx=0;exitDy=0;" edge="1" parent="1" target="Zl5kmqtOo2W7yN948FD8-113">
          <mxGeometry width="50" height="50" relative="1" as="geometry">
            <mxPoint x="2420" y="186" as="sourcePoint" />
            <mxPoint x="2073.86" y="199.5" as="targetPoint" />
          </mxGeometry>
        </mxCell>
        <mxCell id="Zl5kmqtOo2W7yN948FD8-124" value="" style="rounded=0;whiteSpace=wrap;html=1;" vertex="1" parent="1">
          <mxGeometry x="2475" y="366" width="30" height="50" as="geometry" />
        </mxCell>
        <mxCell id="Zl5kmqtOo2W7yN948FD8-125" value="" style="endArrow=none;html=1;rounded=0;exitX=0.5;exitY=0;exitDx=0;exitDy=0;entryX=0.5;entryY=1;entryDx=0;entryDy=0;" edge="1" parent="1" source="Zl5kmqtOo2W7yN948FD8-124">
          <mxGeometry width="50" height="50" relative="1" as="geometry">
            <mxPoint x="2428" y="416" as="sourcePoint" />
            <mxPoint x="2490" y="346" as="targetPoint" />
          </mxGeometry>
        </mxCell>
        <mxCell id="Zl5kmqtOo2W7yN948FD8-126" value="" style="rounded=0;whiteSpace=wrap;html=1;" vertex="1" parent="1">
          <mxGeometry x="2594.38" y="366" width="30" height="50" as="geometry" />
        </mxCell>
        <mxCell id="Zl5kmqtOo2W7yN948FD8-127" value="" style="endArrow=none;html=1;rounded=0;exitX=0.5;exitY=0;exitDx=0;exitDy=0;entryX=0.5;entryY=1;entryDx=0;entryDy=0;" edge="1" parent="1" source="Zl5kmqtOo2W7yN948FD8-126">
          <mxGeometry width="50" height="50" relative="1" as="geometry">
            <mxPoint x="2547.38" y="416" as="sourcePoint" />
            <mxPoint x="2609.38" y="346" as="targetPoint" />
          </mxGeometry>
        </mxCell>
        <mxCell id="Zl5kmqtOo2W7yN948FD8-128" value="" style="rounded=0;whiteSpace=wrap;html=1;" vertex="1" parent="1">
          <mxGeometry x="2713.75" y="366" width="30" height="50" as="geometry" />
        </mxCell>
        <mxCell id="Zl5kmqtOo2W7yN948FD8-129" value="" style="endArrow=none;html=1;rounded=0;exitX=0.5;exitY=0;exitDx=0;exitDy=0;entryX=0.5;entryY=1;entryDx=0;entryDy=0;" edge="1" parent="1" source="Zl5kmqtOo2W7yN948FD8-128">
          <mxGeometry width="50" height="50" relative="1" as="geometry">
            <mxPoint x="2666.75" y="412.5" as="sourcePoint" />
            <mxPoint x="2728.75" y="342.5" as="targetPoint" />
          </mxGeometry>
        </mxCell>
        <mxCell id="Zl5kmqtOo2W7yN948FD8-130" value="" style="endArrow=none;dashed=1;html=1;rounded=0;entryX=0.5;entryY=1;entryDx=0;entryDy=0;" edge="1" parent="1" target="Zl5kmqtOo2W7yN948FD8-133">
          <mxGeometry width="50" height="50" relative="1" as="geometry">
            <mxPoint x="405" y="440" as="sourcePoint" />
            <mxPoint x="410" y="380" as="targetPoint" />
          </mxGeometry>
        </mxCell>
        <mxCell id="Zl5kmqtOo2W7yN948FD8-131" value="" style="endArrow=none;dashed=1;html=1;rounded=0;" edge="1" parent="1">
          <mxGeometry width="50" height="50" relative="1" as="geometry">
            <mxPoint x="80" y="440" as="sourcePoint" />
            <mxPoint x="400" y="440" as="targetPoint" />
          </mxGeometry>
        </mxCell>
        <mxCell id="Zl5kmqtOo2W7yN948FD8-132" value="" style="endArrow=classic;html=1;rounded=0;entryX=0.5;entryY=1;entryDx=0;entryDy=0;dashed=1;" edge="1" parent="1" target="Zl5kmqtOo2W7yN948FD8-24">
          <mxGeometry width="50" height="50" relative="1" as="geometry">
            <mxPoint x="75" y="440" as="sourcePoint" />
            <mxPoint x="410" y="380" as="targetPoint" />
          </mxGeometry>
        </mxCell>
        <mxCell id="Zl5kmqtOo2W7yN948FD8-133" value="Azonosítja" style="rhombus;whiteSpace=wrap;html=1;fontStyle=4" vertex="1" parent="1">
          <mxGeometry x="370" y="150" width="70" height="60" as="geometry" />
        </mxCell>
        <mxCell id="Zl5kmqtOo2W7yN948FD8-134" value="" style="endArrow=none;html=1;rounded=0;exitX=0;exitY=0.5;exitDx=0;exitDy=0;entryX=1;entryY=0.5;entryDx=0;entryDy=0;" edge="1" parent="1" source="Zl5kmqtOo2W7yN948FD8-71" target="Zl5kmqtOo2W7yN948FD8-133">
          <mxGeometry width="50" height="50" relative="1" as="geometry">
            <mxPoint x="570" y="190" as="sourcePoint" />
            <mxPoint x="639.38" y="189" as="targetPoint" />
          </mxGeometry>
        </mxCell>
        <mxCell id="Zl5kmqtOo2W7yN948FD8-135" value="KId" style="rhombus;whiteSpace=wrap;html=1;fontStyle=4" vertex="1" parent="1">
          <mxGeometry x="1600" y="287.5" width="70" height="60" as="geometry" />
        </mxCell>
        <mxCell id="Zl5kmqtOo2W7yN948FD8-136" value="" style="endArrow=none;html=1;rounded=0;exitX=1;exitY=0.5;exitDx=0;exitDy=0;entryX=0;entryY=0.5;entryDx=0;entryDy=0;" edge="1" parent="1" target="Zl5kmqtOo2W7yN948FD8-135">
          <mxGeometry width="50" height="50" relative="1" as="geometry">
            <mxPoint x="1458.48" y="315" as="sourcePoint" />
            <mxPoint x="1533.8600000000001" y="315" as="targetPoint" />
          </mxGeometry>
        </mxCell>
        <mxCell id="Zl5kmqtOo2W7yN948FD8-137" value="" style="endArrow=none;dashed=1;html=1;rounded=0;entryX=0.5;entryY=1;entryDx=0;entryDy=0;" edge="1" parent="1" target="Zl5kmqtOo2W7yN948FD8-135">
          <mxGeometry width="50" height="50" relative="1" as="geometry">
            <mxPoint x="1640" y="760" as="sourcePoint" />
            <mxPoint x="1666" y="350" as="targetPoint" />
          </mxGeometry>
        </mxCell>
        <mxCell id="Zl5kmqtOo2W7yN948FD8-138" value="" style="endArrow=none;dashed=1;html=1;rounded=0;" edge="1" parent="1">
          <mxGeometry width="50" height="50" relative="1" as="geometry">
            <mxPoint x="1640" y="760" as="sourcePoint" />
            <mxPoint x="1000" y="760" as="targetPoint" />
          </mxGeometry>
        </mxCell>
        <mxCell id="Zl5kmqtOo2W7yN948FD8-139" value="" style="endArrow=none;dashed=1;html=1;rounded=0;" edge="1" parent="1">
          <mxGeometry width="50" height="50" relative="1" as="geometry">
            <mxPoint x="1000" y="240" as="sourcePoint" />
            <mxPoint x="1000" y="760" as="targetPoint" />
          </mxGeometry>
        </mxCell>
        <mxCell id="Zl5kmqtOo2W7yN948FD8-140" value="" style="endArrow=classic;html=1;rounded=0;dashed=1;entryX=0.6;entryY=0.867;entryDx=0;entryDy=0;entryPerimeter=0;" edge="1" parent="1">
          <mxGeometry width="50" height="50" relative="1" as="geometry">
            <mxPoint x="1000" y="240" as="sourcePoint" />
            <mxPoint x="1000" y="197.01999999999998" as="targetPoint" />
          </mxGeometry>
        </mxCell>
        <mxCell id="Zl5kmqtOo2W7yN948FD8-141" value="" style="endArrow=none;dashed=1;html=1;rounded=0;entryX=0.5;entryY=1;entryDx=0;entryDy=0;" edge="1" parent="1" target="Zl5kmqtOo2W7yN948FD8-101">
          <mxGeometry width="50" height="50" relative="1" as="geometry">
            <mxPoint x="1755" y="800" as="sourcePoint" />
            <mxPoint x="1752.5" y="210" as="targetPoint" />
          </mxGeometry>
        </mxCell>
        <mxCell id="Zl5kmqtOo2W7yN948FD8-142" value="" style="endArrow=none;dashed=1;html=1;rounded=0;" edge="1" parent="1">
          <mxGeometry width="50" height="50" relative="1" as="geometry">
            <mxPoint x="1750" y="800" as="sourcePoint" />
            <mxPoint x="990" y="800" as="targetPoint" />
          </mxGeometry>
        </mxCell>
        <mxCell id="Zl5kmqtOo2W7yN948FD8-144" value="" style="endArrow=classic;html=1;rounded=0;dashed=1;" edge="1" parent="1">
          <mxGeometry width="50" height="50" relative="1" as="geometry">
            <mxPoint x="989" y="803" as="sourcePoint" />
            <mxPoint x="989" y="203" as="targetPoint" />
          </mxGeometry>
        </mxCell>
        <mxCell id="Zl5kmqtOo2W7yN948FD8-147" value="" style="endArrow=none;html=1;rounded=0;entryX=0;entryY=0.5;entryDx=0;entryDy=0;exitX=1;exitY=0.5;exitDx=0;exitDy=0;" edge="1" parent="1" source="Zl5kmqtOo2W7yN948FD8-113">
          <mxGeometry width="50" height="50" relative="1" as="geometry">
            <mxPoint x="2680" y="190" as="sourcePoint" />
            <mxPoint x="2778.75" y="186" as="targetPoint" />
          </mxGeometry>
        </mxCell>
        <mxCell id="Zl5kmqtOo2W7yN948FD8-149" value="" style="endArrow=none;dashed=1;html=1;rounded=0;" edge="1" parent="1">
          <mxGeometry width="50" height="50" relative="1" as="geometry">
            <mxPoint x="2380" y="840" as="sourcePoint" />
            <mxPoint x="980" y="840" as="targetPoint" />
          </mxGeometry>
        </mxCell>
        <mxCell id="Zl5kmqtOo2W7yN948FD8-151" value="" style="endArrow=classic;html=1;rounded=0;dashed=1;entryX=0.5;entryY=1;entryDx=0;entryDy=0;" edge="1" parent="1" target="Zl5kmqtOo2W7yN948FD8-104">
          <mxGeometry width="50" height="50" relative="1" as="geometry">
            <mxPoint x="2257" y="240" as="sourcePoint" />
            <mxPoint x="990" y="210" as="targetPoint" />
          </mxGeometry>
        </mxCell>
        <mxCell id="Zl5kmqtOo2W7yN948FD8-152" value="" style="endArrow=none;dashed=1;html=1;rounded=0;entryX=0.5;entryY=1;entryDx=0;entryDy=0;" edge="1" parent="1" target="Zl5kmqtOo2W7yN948FD8-163">
          <mxGeometry width="50" height="50" relative="1" as="geometry">
            <mxPoint x="2380" y="840" as="sourcePoint" />
            <mxPoint x="2814" y="216" as="targetPoint" />
          </mxGeometry>
        </mxCell>
        <mxCell id="Zl5kmqtOo2W7yN948FD8-153" value="" style="endArrow=none;html=1;rounded=0;entryX=0.5;entryY=1;entryDx=0;entryDy=0;exitX=0.5;exitY=0;exitDx=0;exitDy=0;" edge="1" parent="1" source="Zl5kmqtOo2W7yN948FD8-50" target="Zl5kmqtOo2W7yN948FD8-1">
          <mxGeometry width="50" height="50" relative="1" as="geometry">
            <mxPoint x="1580" y="240" as="sourcePoint" />
            <mxPoint x="1630" y="190" as="targetPoint" />
          </mxGeometry>
        </mxCell>
        <mxCell id="Zl5kmqtOo2W7yN948FD8-154" value="" style="endArrow=none;html=1;rounded=0;entryX=0.5;entryY=1;entryDx=0;entryDy=0;exitX=0.5;exitY=0;exitDx=0;exitDy=0;" edge="1" parent="1" source="Zl5kmqtOo2W7yN948FD8-10" target="Zl5kmqtOo2W7yN948FD8-1">
          <mxGeometry width="50" height="50" relative="1" as="geometry">
            <mxPoint x="1301" y="161" as="sourcePoint" />
            <mxPoint x="1305" y="70" as="targetPoint" />
          </mxGeometry>
        </mxCell>
        <mxCell id="Zl5kmqtOo2W7yN948FD8-155" value="" style="endArrow=none;html=1;rounded=0;entryX=0.5;entryY=1;entryDx=0;entryDy=0;exitX=0.5;exitY=0;exitDx=0;exitDy=0;" edge="1" parent="1" source="Zl5kmqtOo2W7yN948FD8-112" target="Zl5kmqtOo2W7yN948FD8-1">
          <mxGeometry width="50" height="50" relative="1" as="geometry">
            <mxPoint x="1989" y="155" as="sourcePoint" />
            <mxPoint x="1305" y="70" as="targetPoint" />
          </mxGeometry>
        </mxCell>
        <mxCell id="Zl5kmqtOo2W7yN948FD8-156" value="" style="endArrow=none;html=1;rounded=0;entryX=0.5;entryY=1;entryDx=0;entryDy=0;exitX=0.5;exitY=0;exitDx=0;exitDy=0;" edge="1" parent="1" source="Zl5kmqtOo2W7yN948FD8-8" target="Zl5kmqtOo2W7yN948FD8-1">
          <mxGeometry width="50" height="50" relative="1" as="geometry">
            <mxPoint x="1301" y="161" as="sourcePoint" />
            <mxPoint x="1305" y="70" as="targetPoint" />
          </mxGeometry>
        </mxCell>
        <mxCell id="Zl5kmqtOo2W7yN948FD8-157" value="" style="endArrow=none;html=1;rounded=0;exitX=0.5;exitY=0;exitDx=0;exitDy=0;" edge="1" parent="1" source="Zl5kmqtOo2W7yN948FD8-7">
          <mxGeometry width="50" height="50" relative="1" as="geometry">
            <mxPoint x="709" y="155" as="sourcePoint" />
            <mxPoint x="1300" y="60" as="targetPoint" />
          </mxGeometry>
        </mxCell>
        <mxCell id="Zl5kmqtOo2W7yN948FD8-158" value="Dolgozik" style="rhombus;whiteSpace=wrap;html=1;fontStyle=4" vertex="1" parent="1">
          <mxGeometry x="2350" y="156" width="70" height="60" as="geometry" />
        </mxCell>
        <mxCell id="Zl5kmqtOo2W7yN948FD8-159" value="" style="endArrow=none;dashed=1;html=1;rounded=0;entryX=0.5;entryY=1;entryDx=0;entryDy=0;" edge="1" parent="1" target="Zl5kmqtOo2W7yN948FD8-158">
          <mxGeometry width="50" height="50" relative="1" as="geometry">
            <mxPoint x="2385" y="240" as="sourcePoint" />
            <mxPoint x="2325.25" y="270" as="targetPoint" />
          </mxGeometry>
        </mxCell>
        <mxCell id="Zl5kmqtOo2W7yN948FD8-160" value="CégID" style="rhombus;whiteSpace=wrap;html=1;fontStyle=4" vertex="1" parent="1">
          <mxGeometry x="2708.75" y="155" width="70" height="60" as="geometry" />
        </mxCell>
        <mxCell id="Zl5kmqtOo2W7yN948FD8-161" value="" style="endArrow=none;dashed=1;html=1;rounded=0;" edge="1" parent="1">
          <mxGeometry width="50" height="50" relative="1" as="geometry">
            <mxPoint x="2380" y="240" as="sourcePoint" />
            <mxPoint x="2260" y="240" as="targetPoint" />
          </mxGeometry>
        </mxCell>
        <mxCell id="Zl5kmqtOo2W7yN948FD8-163" value="Kiadva" style="rhombus;whiteSpace=wrap;html=1;fontStyle=4" vertex="1" parent="1">
          <mxGeometry x="2350" y="250" width="70" height="60" as="geometry" />
        </mxCell>
        <mxCell id="Zl5kmqtOo2W7yN948FD8-164" value="" style="endArrow=classic;html=1;rounded=0;dashed=1;entryX=0.386;entryY=0.867;entryDx=0;entryDy=0;entryPerimeter=0;" edge="1" parent="1" target="Zl5kmqtOo2W7yN948FD8-73">
          <mxGeometry width="50" height="50" relative="1" as="geometry">
            <mxPoint x="980" y="840" as="sourcePoint" />
            <mxPoint x="999" y="213" as="targetPoint" />
          </mxGeometry>
        </mxCell>
        <mxCell id="Zl5kmqtOo2W7yN948FD8-165" value="" style="endArrow=none;html=1;rounded=0;entryX=0;entryY=0.5;entryDx=0;entryDy=0;exitX=1;exitY=0.5;exitDx=0;exitDy=0;" edge="1" parent="1" source="Zl5kmqtOo2W7yN948FD8-163" target="Zl5kmqtOo2W7yN948FD8-113">
          <mxGeometry width="50" height="50" relative="1" as="geometry">
            <mxPoint x="1850" y="600" as="sourcePoint" />
            <mxPoint x="1900" y="550" as="targetPoint" />
          </mxGeometry>
        </mxCell>
        <mxCell id="Zl5kmqtOo2W7yN948FD8-167" value="Karbantartó" style="ellipse;whiteSpace=wrap;html=1;" vertex="1" parent="1">
          <mxGeometry x="870" y="292.5" width="100" height="50" as="geometry" />
        </mxCell>
        <mxCell id="Zl5kmqtOo2W7yN948FD8-168" value="" style="endArrow=none;html=1;rounded=0;entryX=0.5;entryY=0;entryDx=0;entryDy=0;exitX=0.5;exitY=1;exitDx=0;exitDy=0;" edge="1" parent="1" source="Zl5kmqtOo2W7yN948FD8-167" target="Zl5kmqtOo2W7yN948FD8-41">
          <mxGeometry width="50" height="50" relative="1" as="geometry">
            <mxPoint x="930" y="303" as="sourcePoint" />
            <mxPoint x="709" y="220" as="targetPoint" />
          </mxGeometry>
        </mxCell>
      </root>
    </mxGraphModel>
  </diagram>
</mxfile>
